<svg width="60" height="60" viewBox="0 0 60 60" fill="none" xmlns="http://www.w3.org/2000/svg">
<path d="M52.4 0.600098H7.59997C3.73598 0.600098 0.599976 3.7361 0.599976 7.6001V52.4001C0.599976 56.2641 3.73598 59.4001 7.59997 59.4001H52.4C56.264 59.4001 59.4 56.2641 59.4 52.4001V7.6001C59.4 3.7361 56.264 0.600098 52.4 0.600098ZM46.8 21.6001H44C41.004 21.6001 39.8 22.3001 39.8 24.4001V28.6001H46.8L45.4 35.6001H39.8V56.6001H32.8V35.6001H27.2V28.6001H32.8V24.4001C32.8 18.8001 35.6 14.6001 41.2 14.6001C45.26 14.6001 46.8 16.0001 46.8 16.0001V21.6001Z" fill="#DF9527"/>
</svg>
