<svg width="58" height="43" viewBox="0 0 58 43" fill="none" xmlns="http://www.w3.org/2000/svg">
<path d="M45.4062 24.1031V42.8751H53.6455C55.74 42.8751 57.4375 41.1776 57.4375 39.0831V18.2504L45.4062 24.1031ZM45.4062 21.0001L57.4375 12.9796V7.04496C57.4375 4.95152 56.5494 2.90949 54.8945 1.62762C52.3395 -0.350978 48.8625 -0.202228 46.5109 1.79277L45.4062 2.66012V21.0001ZM15.6716 22.9929L29 30.8439L42.5067 22.8879L41.5158 5.71277L29 15.5314L16.6603 5.85058L15.6716 22.9929ZM12.7611 21.1117V2.79137L11.4891 1.79387C9.1375 -0.200041 5.66047 -0.350979 3.10656 1.62871C1.45063 2.90949 0.5625 4.95262 0.5625 7.04715V12.9796L12.7611 21.1117ZM0.5625 18.2504V39.0831C0.5625 41.1776 2.26 42.8751 4.35453 42.8751H12.5938V24.1031L0.5625 18.2504Z" fill="#DF9527"/>
</svg>
