<svg width="60" height="60" viewBox="0 0 60 60" fill="none" xmlns="http://www.w3.org/2000/svg">
<path d="M52.4 0.600098H7.59998C3.73598 0.600098 0.599976 3.7361 0.599976 7.6001V52.4001C0.599976 56.2641 3.73598 59.4001 7.59998 59.4001H52.4C56.264 59.4001 59.4 56.2641 59.4 52.4001V7.6001C59.4 3.7361 56.264 0.600098 52.4 0.600098ZM18.8 23.0001V49.6001H10.4V23.0001H18.8ZM10.4 15.2581C10.4 13.2981 12.08 11.8001 14.6 11.8001C17.12 11.8001 18.702 13.2981 18.8 15.2581C18.8 17.2181 17.232 18.8001 14.6 18.8001C12.08 18.8001 10.4 17.2181 10.4 15.2581ZM49.6 49.6001H41.2C41.2 49.6001 41.2 36.6361 41.2 35.6001C41.2 32.8001 39.8 30.0001 36.3 29.9441H36.188C32.8 29.9441 31.4 32.8281 31.4 35.6001C31.4 36.8741 31.4 49.6001 31.4 49.6001H23V23.0001H31.4V26.5841C31.4 26.5841 34.102 23.0001 39.534 23.0001C45.092 23.0001 49.6 26.8221 49.6 34.5641V49.6001Z" fill="#DF9527"/>
</svg>
