<svg width="583" height="330" viewBox="0 0 583 330" fill="none" xmlns="http://www.w3.org/2000/svg">
<path d="M244.454 193.658C244.454 199.779 241.421 202.84 235.354 202.84H209.678C203.611 202.84 200.577 199.779 200.577 193.658V132.962C200.577 126.841 203.611 123.78 209.678 123.78H235.354C241.421 123.78 244.454 126.841 244.454 132.962V148.725H233.81V133.287H211.384V193.333H233.81V175.701H244.454V193.658ZM305.881 193.658C305.881 199.779 302.848 202.84 296.781 202.84H271.105C265.038 202.84 262.005 199.779 262.005 193.658V132.962C262.005 126.841 265.038 123.78 271.105 123.78H296.781C302.848 123.78 305.881 126.841 305.881 132.962V148.725H295.237V133.287H272.811V193.333H295.237V175.701H305.881V193.658ZM368.853 202.84H358.046V133.45L334.239 134.1V202.84H323.432V75.6786H334.239V125.974C338.518 125.433 342.797 124.891 347.077 124.349C352.494 123.645 356.746 123.293 359.834 123.293C365.846 123.293 368.853 126.245 368.853 132.15V202.84ZM431.011 202.84H420.367V200.646C416.088 201.242 411.809 201.811 407.529 202.352C402.221 203.002 397.968 203.327 394.772 203.327C388.868 203.327 385.916 200.402 385.916 194.552V165.707C385.916 159.64 388.976 156.607 395.097 156.607H420.53V132.8H397.291V146.288H386.81V132.962C386.81 126.841 389.843 123.78 395.91 123.78H421.911C427.978 123.78 431.011 126.841 431.011 132.962V202.84ZM420.53 193.008V165.057H396.397V193.496L420.53 193.008ZM490.082 149.782H479.438V133.45L459.531 134.1V202.84H448.725V123.78H459.531V125.974C463.106 125.433 466.709 124.864 470.338 124.268C474.671 123.618 478.274 123.293 481.145 123.293C487.103 123.293 490.082 126.245 490.082 132.15V149.782ZM515.108 202.84H504.464V75.6786H515.108V202.84ZM578.08 123.78L559.066 202.19L551.185 232.822H540.541L548.503 202.19L529.003 123.78H540.134L553.622 186.02L567.273 123.78H578.08Z" fill="#1C1917"/>
<path d="M166.251 0.00771776C122.583 -0.414804 80.5363 16.5266 49.3598 47.1051C18.1833 77.6836 0.430892 119.394 0.0077368 163.062C-0.41531 206.73 16.5259 248.777 47.1044 279.954C77.683 311.131 119.394 328.883 163.062 329.307C194.649 329.613 225.658 320.826 252.389 303.995L242.748 303.86C218.22 303.518 198.615 283.495 198.79 258.965L198.895 244.228C187.839 249.155 175.883 251.642 163.815 251.525C141.171 251.305 119.543 241.943 103.689 225.496C87.835 209.05 79.0539 186.868 79.2772 163.829C79.5 140.84 88.6703 118.875 104.779 102.747C120.887 86.6191 142.62 77.6432 165.216 77.786C165.31 77.7884 165.403 77.7909 165.497 77.7936C177.415 77.909 189.176 80.5619 200.025 85.5815L200.134 70.3826C200.309 45.8531 220.198 26.3807 244.725 26.7224L254.787 26.863C228.448 9.63538 197.723 0.317253 166.252 0.0123314L166.251 0.00771776Z" fill="#1C1917"/>
<path d="M213.023 91.9976V99.7573C219.389 104.573 225.008 110.302 229.699 116.759C231.547 115.688 233.517 114.805 235.586 114.136C229.474 105.446 221.828 97.9438 213.023 91.9976ZM227.045 215.484C222.933 220.547 218.225 225.096 213.023 229.031V236.791C220.429 231.789 227.023 225.681 232.576 218.679C230.614 217.805 228.76 216.734 227.045 215.484Z" fill="#1C1917"/>
</svg>
